# xmcd
#
# Track frame offsets:
#	150
#	16212
#	33237
#	48635
#	74285
#	100829
#	126704
#	153930
#
# Disc length: 2382 seconds
#
# Revision: 0
# Processed by: cddbd v1.5.2PL0 Copyright (c) Steve Scherf et al.
# Submitted via: dBpowerAMP V4.0
#
DISCID=67094c08
DTITLE=2-4 Grooves - Writing On The Wall (St. Elmo's Fire) CDM
DYEAR=2008
DGENRE=Dance
TTITLE0=Writing On The Wall (St. Elmo's Fire) (Original Radio Edit)
TTITLE1=Writing On The Wall (St. Elmo's Fire) (Topmodelz Radio Edit)
TTITLE2=Writing On The Wall (St. Elmo's Fire) (Club Edit)
TTITLE3=Writing On The Wall (St. Elmo's Fire) (Topmodelz Remix)
TTITLE4=Writing On The Wall (St. Elmo's Fire) (Original Club Mix)
TTITLE5=Writing On The Wall (St. Elmo's Fire) (Steve'N King Remix)
TTITLE6=Writing On The Wall (St. Elmo's Fire) (Mondo Remix)
TTITLE7=Writing On The Wall (St. Elmo's Fire) (Original Extended)
EXTD=
EXTT0=
EXTT1=
EXTT2=
EXTT3=
EXTT4=
EXTT5=
EXTT6=
EXTT7=
PLAYORDER=
